<svg xmlns="http://www.w3.org/2000/svg" viewBox="0 0 64 64" fill="currentColor">
  <!-- Cloud shape -->
  <path d="M50 38h2a8 8 0 0 0 0-16 8 8 0 0 0-1-.06A14 14 0 0 0 24 18a10 10 0 0 0-14 9.17A8 8 0 0 0 12 44h38a8 8 0 0 0 0-6z" fill="none" stroke="currentColor" stroke-width="3" stroke-linejoin="round"/>
  <!-- Down arrow left -->
  <path d="M22 44v10m-4-4l4 4 4-4" fill="none" stroke="currentColor" stroke-width="2.5" stroke-linecap="round" stroke-linejoin="round"/>
  <!-- Down arrow centre -->
  <path d="M32 44v10m-4-4l4 4 4-4" fill="none" stroke="currentColor" stroke-width="2.5" stroke-linecap="round" stroke-linejoin="round"/>
  <!-- Down arrow right -->
  <path d="M42 44v10m-4-4l4 4 4-4" fill="none" stroke="currentColor" stroke-width="2.5" stroke-linecap="round" stroke-linejoin="round"/>
</svg>
